<?xml version="1.0" encoding="utf-8"?>
<!-- Generator: Adobe Illustrator 17.1.0, SVG Export Plug-In . SVG Version: 6.00 Build 0)  -->
<!DOCTYPE svg PUBLIC "-//W3C//DTD SVG 1.1//EN" "http://www.w3.org/Graphics/SVG/1.1/DTD/svg11.dtd">
<svg version="1.1" id="Layer_1" xmlns="http://www.w3.org/2000/svg" xmlns:xlink="http://www.w3.org/1999/xlink" x="0px" y="0px"
	 viewBox="0 0 300 300" enable-background="new 0 0 300 300" xml:space="preserve">
<g id="Layer_1_1_">
</g>
<g id="text">
	<defs>
		<filter id="Adobe_OpacityMaskFilter" filterUnits="userSpaceOnUse" x="105" y="23.1" width="90" height="264.9">
			<feColorMatrix  type="matrix" values="1 0 0 0 0  0 1 0 0 0  0 0 1 0 0  0 0 0 1 0"/>
		</filter>
	</defs>
	<mask maskUnits="userSpaceOnUse" x="105" y="23.1" width="90" height="264.9" id="SVGID_1_">
		<g filter="url(#Adobe_OpacityMaskFilter)">
			
				<image overflow="visible" enable-background="new    " width="6000" height="4000" xlink:href="A273F84E8D673BA6.jpg"  transform="matrix(2.717109e-02 0 0 7.137500e-02 59.3 13.4279)">
			</image>
		</g>
	</mask>
	<g mask="url(#SVGID_1_)">
		<g>
			<path d="M163.1,27.9c0.1,1.8,0.2,3.5,0.3,5.3c0,0.5-0.1,1-0.1,1.5c0,0.6,0.1,1.1,0.3,1.6c0.2,0.5,0.3,1,0.3,1.6
				c0.1,1.7,0.2,3.4,0.3,5.1c0,0.7,0,1.4-0.1,2.2c0,0.4,0,0.8,0,1.1c0.2,0.9,0,1.7-0.6,2.3c-0.5,0.5-0.7,1.2-0.7,1.9
				c-0.1,2.1,0.3,4.2,0.6,6.3c0.3,2.2,0.6,4.4,0.9,6.5c0.2,1.8,0.4,3.7,0.6,5.6c0.1,1.3,0.3,2.7,0.4,4c0.2,2.1,0.6,4.1,1.1,6.1
				c0.3,1.1,0.5,2.2,0.8,3.3c0,0.1,0,0.2,0.1,0.3c0.1,1.7,0.2,3.4,0.4,5c0,0.7,0.2,1.4,0.1,2.2c-0.1,1.5-0.2,3-0.4,4.6
				c-0.2,1.6-0.4,3.3-0.5,4.9c-0.2,2.2-0.3,4.4-0.3,6.6c0,1.9,0.3,3.9,1.1,5.7c0.7,1.7,1.7,3.3,3.1,4.7c1.6,1.6,3.1,3.2,4.9,4.5
				c1.5,1.1,3,2.1,4.5,3.2c1.7,1.3,3.5,2.5,5.2,3.9c3.6,3,6.3,6.8,7.8,11.3c0.8,2.4,1.3,4.9,1.6,7.5c0.2,2,0.2,3.9,0.2,5.9
				c0,1.6,0,3.2,0,4.8c0,2.5-0.1,5-0.1,7.6c0,2.2-0.1,4.3-0.1,6.5c-0.1,3.5,0,7-0.2,10.5c-0.1,2.9,0,5.9-0.1,8.8
				c-0.2,3.1,0,6.2-0.1,9.2c-0.2,3.2,0,6.3-0.1,9.5c-0.2,3.3,0,6.6-0.1,9.9c-0.2,3.5,0,7-0.1,10.5c-0.2,3.5,0,7-0.1,10.5
				c-0.2,3.4-0.1,6.9-0.1,10.3c0,1.3-0.2,2.6-0.7,3.8c-0.2,0.5-0.5,0.9-0.9,1.4c-0.3,0.4-0.5,0.7-0.4,1.2c0.1,0.3,0,0.6-0.1,0.9
				s0,0.5,0.2,0.7c1.2,0.9,1.5,2.2,1.7,3.5c0.1,0.7,0.2,1.5,0.2,2.3c0,4.3,0,8.6,0,12.9c0,1.5-0.2,3-0.3,4.4c-0.1,0.7-0.3,0.9-1,1
				c-0.2,0-0.3,0.1-0.5,0.1c-0.6,0.2-1.3,0.5-1.9,0.7c-1.2,0.4-2.4,0.7-3.7,0.4c-0.3-0.1-0.6,0-0.8,0.3c-0.2,0.3-0.5,0.4-0.8,0.3
				c-1-0.2-1.9,0.2-2.8,0.6c-0.6,0.3-1.3,0.5-2,0.5c-0.2,0-0.4,0-0.6,0.1c-0.6,0.3-1.3,0.4-2,0.3c-0.1,0-0.3,0-0.4,0
				c-1,0.4-2.1,0.3-3.2,0.5c-0.2,0-0.3,0-0.5,0.1c-0.4,0.2-0.7,0.2-1.1,0c-0.1,0-0.3-0.1-0.4-0.1c-1.1,0.3-2.3,0.1-3.3,0.6
				c-0.6,0.2-1.1,0.2-1.7,0.2c-0.6,0-1.2,0-1.8,0c-1.2,0.1-2.3,0.2-3.5,0.3c-0.8,0.1-1.6,0.3-2.3,0.3c-1,0.1-2.1,0-3.1,0
				c-0.8,0-1.6,0-2.3,0c-0.7,0-1.4,0.1-2.1-0.1c-0.7-0.2-1.4-0.4-2.1-0.5c-0.2,0-0.5,0-0.7,0c-0.5,0-1,0.1-1.5,0.1
				c-1.4,0.1-2.7,0.1-4.1,0.1c-0.4,0-0.8-0.1-1.2-0.1c-0.7-0.1-1.4-0.1-2.1-0.2c-1.8-0.1-3.6-0.1-5.5-0.1c-0.2,0-0.4-0.1-0.7-0.1
				c-0.2,0-0.3-0.1-0.5-0.1c-1.4,0-2.7-0.4-4-0.7c-0.5-0.1-1-0.1-1.5-0.2c-0.3,0-0.5-0.1-0.8-0.1c-0.2,0-0.3-0.1-0.5-0.1
				c-1,0-2,0-3,0c-0.4,0-0.8,0-1.1-0.4c-0.1-0.1-0.3-0.1-0.5-0.2s-0.4-0.2-0.6-0.3c-0.2-0.3-0.5-0.3-0.8-0.3c-0.5,0.1-0.9,0-1.4-0.2
				c-0.2-0.1-0.5-0.2-0.7-0.2c-1.1,0-2.3-0.1-3.4-0.4c-0.3-0.1-0.6,0-0.8,0.3c-0.4,0.5-0.8,0.4-1.3,0.2c-0.6-0.3-1.3-0.4-2-0.6
				c-0.3-0.1-0.7-0.2-1-0.3c-0.1,0-0.3-0.1-0.4-0.1c-0.5,0-1-0.2-1.4-0.5c-0.3-0.1-0.6-0.2-0.9-0.2c-0.4,0-0.6-0.2-0.7-0.5
				c-0.3-0.9-0.4-1.8-0.4-2.8c0-1.4-0.1-2.8-0.2-4.2c0-0.3,0-0.5,0-0.8c0-2.1,0-4.3,0-6.4c0-1.5,0.2-3.1,0.2-4.6
				c0-0.7,0.1-1.4,0.2-2.1c0.1-1.3,0.6-2.3,1.7-3c0.1-0.1,0.2-0.1,0.3-0.2c0.2-0.2,0.3-0.3,0.1-0.6c-0.2-0.3-0.2-0.6-0.4-0.9
				c-0.1-0.2-0.2-0.5-0.4-0.6c-1.1-1.1-1.5-2.4-1.6-3.9c-0.1-1.1-0.1-2.3-0.2-3.4c-0.2-2.8-0.2-5.5-0.1-8.3c0.2-7,0.1-13.9,0.1-20.9
				c-0.1-4.7,0-9.4-0.1-14.2c-0.1-3.1,0-6.3-0.1-9.4c-0.2-2.8,0-5.6-0.1-8.4c-0.1-2.5,0-5-0.1-7.4c-0.2-2.5,0-5-0.1-7.5
				c-0.1-2.1-0.1-4.2-0.1-6.3c0-1.6-0.1-3.3-0.1-4.9c0-2-0.1-4-0.1-6.1c0-0.7-0.1-1.5-0.1-2.2c0.1-3.3,0.2-6.7,0.8-10
				c0.7-3.5,1.9-6.7,4-9.6c1.3-1.7,2.7-3.2,4.4-4.6c2.2-1.8,4.5-3.6,6.8-5.3c1.3-1,2.6-1.9,3.9-2.9c2.2-1.8,4.4-3.7,6-6.1
				c1.3-2,2.1-4.2,2.4-6.5c0.1-0.9,0.2-1.7,0.2-2.6c0-1,0-2-0.2-3c-0.2-2.1-0.5-4.2-0.8-6.4c-0.2-1.9-0.4-3.8-0.4-5.6
				c0.1-1.9,0.3-3.8,0.4-5.8c0-0.1,0.1-0.3,0-0.4c-0.3-0.7,0-1.4,0.2-2.1c0.6-3,1.3-6,1.8-9c0.3-1.9,0.5-3.9,0.8-5.8
				c0.2-1.9,0.5-3.8,0.7-5.7c0.3-2.1,0.5-4.1,0.8-6.2c0.2-1.4,0.3-2.8,0.3-4.2c0-0.9-0.2-1.8-0.9-2.5c-0.4-0.4-0.5-0.9-0.4-1.5
				c0.2-0.6,0.1-1.2,0-1.9s0-1.5,0-2.3c0-0.2,0.1-0.4,0.1-0.5c0.1-1.5,0.1-3,0.1-4.4c0-0.6,0.2-1.2,0.5-1.7c0.2-0.4,0.3-0.8,0.4-1.3
				c0.1-0.4,0-0.9,0-1.3c0-2.5,0.1-4.9,0.2-7.4c0-0.5,0.2-1.1,0.3-1.6c0.1-0.4,0.5-0.6,0.8-0.7c0.8-0.2,1.6-0.4,2.4-0.6
				c1.8-0.3,3.6-0.4,5.4-0.4c1.4,0,2.8-0.1,4.2-0.1c1.9,0,3.9,0,5.8,0.1c1.7,0.1,3.4,0.3,5,0.5c0.5,0.1,1,0.3,1.4,0.5
				c0.7,0.4,1.1,1.1,1.1,2C163.1,26.5,163.1,27.2,163.1,27.9L163.1,27.9z"/>
		</g>
		<g>
			<path fill="#00B2B2" d="M194.5,242.2c-29.4,5.1-59.4,5.1-88.8,0c0-21.2,0-42.4,0-63.5c29.4,5.1,59.4,5.1,88.8,0
				C194.5,199.8,194.5,221,194.5,242.2z"/>
			<path fill="none" stroke="#272525" stroke-miterlimit="10" d="M194.5,242.2c-29.4,5.1-59.4,5.1-88.8,0c0-21.2,0-42.4,0-63.5
				c29.4,5.1,59.4,5.1,88.8,0C194.5,199.8,194.5,221,194.5,242.2z"/>
		</g>
		<g>
			<g>
				<path fill="#8B441A" d="M109.9,215c0.3,0,0.6,0.1,0.9,0.1c0-2.3,0-4.7,0-7c-0.3,0-0.6-0.1-0.9-0.1c0-0.7,0-1.4,0-2.1
					c2,0.3,4,0.6,5.9,0.9c2.6,0.4,3.9,1.5,3.9,3.2c0,1.3-0.4,2-1.6,2.3c1.1,0.5,2.1,1.4,2.1,3c0,2.3-1.3,3.1-4.3,2.7
					c-2-0.3-4-0.6-6.1-0.9C109.9,216.4,109.9,215.7,109.9,215z M114.1,211c0.3,0,0.6,0.1,1,0.1c0.8,0.1,1.1-0.3,1.1-1.1
					c0-0.7-0.4-1.2-1.1-1.3c-0.3,0-0.7-0.1-1-0.1C114.1,209.4,114.1,210.2,114.1,211z M115.4,215.8c0.7,0.1,1.3-0.3,1.3-1.2
					c0-0.8-0.5-1.5-1.3-1.6c-0.4-0.1-0.8-0.1-1.2-0.2c0,0.9,0,1.9,0,2.8C114.5,215.7,114.9,215.7,115.4,215.8z"/>
				<path fill="#8B441A" d="M120.7,212.9c0-3.5,2.3-5.6,5.6-5.3c3.9,0.4,5.7,2.8,5.7,6.4c0,3.6-2,5.7-5.6,5.4
					C123,219.1,120.7,216.9,120.7,212.9z M128,213.8c0-1.9-0.5-3.5-1.8-3.6c-1-0.1-1.6,1.2-1.6,3.2c0,2.1,0.8,3.5,1.8,3.6
					C127.4,217,128,215.7,128,213.8z"/>
				<path fill="#8B441A" d="M137.6,208.8c0,0.7,0,1.4,0,2.1c-0.3,0-0.6,0-0.9,0c0,1.2,0,2.3,0,3.5c0,2.6,0.6,3.2,1.6,3.2
					s1.6-0.3,1.6-3.1c0-1.1,0-2.3,0-3.4c-0.3,0-0.6,0-0.9,0c0-0.7,0-1.4,0-2.1c1.6,0.1,3.2,0.1,4.8,0.2c0,0.7,0,1.4,0,2.1
					c-0.3,0-0.6,0-0.9,0c0,1.3,0,2.6,0,3.9c0,3.8-1.6,5.5-4.6,5.3c-3.2-0.3-5-2.1-5-5.7c0-1.3,0-2.6,0-4c-0.3,0-0.6,0-0.9-0.1
					c0-0.7,0-1.4,0-2.1C134.2,208.6,135.9,208.7,137.6,208.8z"/>
				<path fill="#8B441A" d="M149.7,209.1c3.7,0,4.4,1.4,4.4,3.3c0,1.2-1,2.1-2.3,2.3c1.1,0.2,2.1,1.1,2.1,2.3c0,0.7,0.1,1.1,0.4,1.1
					c0.2,0,0.4-0.2,0.4-0.5c0-0.2,0-0.4,0-0.5c0.4,0,0.7,0,1.1,0c0,0.3,0,0.6,0,0.9c0,1.3-0.6,2.6-2.3,2.6c-2.1,0-3.1-1.1-3.1-3
					c0-1.5-0.2-1.8-1.6-1.8c0,0.8,0,1.7,0,2.5c0.3,0,0.7,0,1,0c0,0.7,0,1.4,0,2.1c-1.7,0-3.5,0-5.2-0.1c0-0.7,0-1.4,0-2.1
					c0.3,0,0.6,0,0.9,0c0-2.3,0-4.7,0-7c-0.3,0-0.6,0-0.9,0c0-0.7,0-1.4,0-2.1C146.2,209.1,148,209.1,149.7,209.1z M148.7,213.9
					c0.2,0,0.5,0,0.7,0c0.9,0,1.5-0.4,1.5-1.3c0-0.9-0.5-1.4-1.5-1.4c-0.3,0-0.5,0-0.8,0C148.7,212.1,148.7,213,148.7,213.9z"/>
				<path fill="#8B441A" d="M156.3,218.1c0.3,0,0.6,0,0.9,0c0-2.3,0-4.7,0-7c-0.3,0-0.6,0-0.9,0c0-0.7,0-1.4,0-2.1c2,0,4-0.1,6-0.2
					c2.7-0.1,3.9,0.8,3.9,2.5c0,1.3-0.4,2-1.6,2.6c1.2,0.3,2.1,1,2.1,2.6c0,2.3-1.3,3.3-4.4,3.5c-2,0.1-4.1,0.2-6.1,0.2
					C156.3,219.5,156.3,218.8,156.3,218.1z M160.6,213.4c0.3,0,0.7,0,1,0c0.9,0,1.1-0.5,1.1-1.3c0-0.7-0.4-1.1-1.1-1.1
					c-0.3,0-0.7,0-1,0C160.6,211.8,160.6,212.6,160.6,213.4z M161.8,218c0.7,0,1.3-0.6,1.3-1.4c0-0.8-0.5-1.4-1.3-1.3
					c-0.4,0-0.8,0-1.2,0.1c0,0.9,0,1.9,0,2.8C161,218,161.4,218,161.8,218z"/>
				<path fill="#8B441A" d="M167.2,214.1c0-3.5,2.3-6,5.6-6.3c3.9-0.3,5.7,1.8,5.7,5.4c0,3.6-2,6.1-5.6,6.4
					C169.5,219.9,167.2,218.1,167.2,214.1z M174.5,213.6c0-1.9-0.5-3.4-1.8-3.3c-1,0.1-1.7,1.5-1.7,3.5c0,2.1,0.8,3.4,1.8,3.3
					C173.9,217,174.5,215.6,174.5,213.6z"/>
				<path fill="#8B441A" d="M190.3,208.1c0,3,0,6.1,0,9.1c-1.1,0.2-2.3,0.3-3.4,0.5c-1.4-1.8-2.7-3.7-4.1-5.6c0,1.3,0,2.7,0,4
					c0.4-0.1,0.8-0.1,1.2-0.2c0,0.7,0,1.4,0,2.1c-1.6,0.2-3.3,0.4-4.9,0.6c0-0.7,0-1.4,0-2.1c0.3,0,0.6-0.1,0.9-0.1
					c0-2.4,0-4.7,0-7.1c-0.3,0-0.6,0.1-0.9,0.1c0-0.7,0-1.4,0-2.1c1.5-0.2,3.1-0.4,4.6-0.5c1.3,1.8,2.6,3.6,3.9,5.3
					c0-1.3,0-2.5,0-3.8c-0.4,0.1-0.7,0.1-1.1,0.2c0-0.7,0-1.4,0-2.1c1.6-0.2,3.2-0.5,4.8-0.7c0,0.7,0,1.4,0,2.1
					C191,208,190.7,208.1,190.3,208.1z"/>
			</g>
		</g>
	</g>
</g>
</svg>
