<?xml version="1.0" encoding="utf-8"?>
<!-- Generator: Adobe Illustrator 17.1.0, SVG Export Plug-In . SVG Version: 6.00 Build 0)  -->
<!DOCTYPE svg PUBLIC "-//W3C//DTD SVG 1.1//EN" "http://www.w3.org/Graphics/SVG/1.1/DTD/svg11.dtd">
<svg version="1.1" xmlns="http://www.w3.org/2000/svg" xmlns:xlink="http://www.w3.org/1999/xlink" x="0px" y="0px"
	 viewBox="0 0 300 300" enable-background="new 0 0 300 300" xml:space="preserve">
<g id="Layer_1">
</g>
<g id="text">
	<defs>
		<filter id="Adobe_OpacityMaskFilter" filterUnits="userSpaceOnUse" x="105.4" y="23.7" width="90.4" height="265.2">
			<feColorMatrix  type="matrix" values="1 0 0 0 0  0 1 0 0 0  0 0 1 0 0  0 0 0 1 0"/>
		</filter>
	</defs>
	<mask maskUnits="userSpaceOnUse" x="105.4" y="23.7" width="90.4" height="265.2" id="SVGID_1_">
		<g filter="url(#Adobe_OpacityMaskFilter)">
			
				<image overflow="visible" width="6000" height="4000" xlink:href="../../Library/Caches/TemporaryItems/texture.jpg"  transform="matrix(4.667552e-02 0 0 7.505789e-02 -9.0266 0.7685)">
			</image>
		</g>
	</mask>
	<g mask="url(#SVGID_1_)">
		<g>
			<path d="M163.8,29c0.1,1.8,0.2,3.5,0.3,5.3c0,0.5-0.1,1-0.1,1.5c0,0.6,0.1,1.1,0.3,1.6c0.2,0.5,0.3,1,0.3,1.6
				c0.1,1.7,0.2,3.4,0.3,5.1c0,0.7,0,1.4-0.1,2.2c0,0.4,0,0.8,0,1.1c0.2,0.9,0,1.7-0.6,2.3c-0.5,0.5-0.7,1.2-0.7,1.9
				c-0.1,2.1,0.3,4.2,0.6,6.3c0.3,2.2,0.6,4.4,0.9,6.5c0.2,1.8,0.4,3.7,0.6,5.6c0.1,1.3,0.3,2.7,0.4,4c0.2,2.1,0.6,4.1,1.1,6.1
				c0.3,1.1,0.5,2.2,0.8,3.3c0,0.1,0,0.2,0.1,0.3c0.1,1.7,0.2,3.4,0.4,5c0,0.7,0.2,1.4,0.1,2.2c-0.1,1.5-0.2,3-0.4,4.6
				c-0.2,1.6-0.4,3.3-0.5,4.9c-0.2,2.2-0.3,4.4-0.3,6.6c0,1.9,0.3,3.9,1.1,5.7c0.7,1.7,1.7,3.3,3.1,4.7c1.6,1.6,3.1,3.2,4.9,4.5
				c1.5,1.1,3,2.1,4.5,3.2c1.7,1.3,3.5,2.5,5.2,3.9c3.6,3,6.3,6.8,7.8,11.3c0.8,2.4,1.3,4.9,1.6,7.5c0.2,2,0.2,3.9,0.2,5.9
				c0,1.6,0,3.2,0,4.8c0,2.5-0.1,5-0.1,7.6c0,2.2-0.1,4.3-0.1,6.5c-0.1,3.5,0,7-0.2,10.5c-0.1,2.9,0,5.9-0.1,8.8
				c-0.2,3.1,0,6.2-0.1,9.2c-0.2,3.2,0,6.3-0.1,9.5c-0.2,3.3,0,6.6-0.1,9.9c-0.2,3.5,0,7-0.1,10.5c-0.2,3.5,0,7-0.1,10.5
				c-0.2,3.4-0.1,6.9-0.1,10.3c0,1.3-0.2,2.6-0.7,3.8c-0.2,0.5-0.5,0.9-0.9,1.4c-0.3,0.4-0.5,0.7-0.4,1.2c0.1,0.3,0,0.6-0.1,0.9
				c-0.1,0.3,0,0.5,0.2,0.7c1.2,0.9,1.5,2.2,1.7,3.5c0.1,0.7,0.2,1.5,0.2,2.3c0,4.3,0,8.6,0,12.9c0,1.5-0.2,3-0.3,4.4
				c-0.1,0.7-0.3,0.9-1,1c-0.2,0-0.3,0.1-0.5,0.1c-0.6,0.2-1.3,0.5-1.9,0.7c-1.2,0.4-2.4,0.7-3.7,0.4c-0.3-0.1-0.6,0-0.8,0.3
				c-0.2,0.3-0.5,0.4-0.8,0.3c-1-0.2-1.9,0.2-2.8,0.6c-0.6,0.3-1.3,0.5-2,0.5c-0.2,0-0.4,0-0.6,0.1c-0.6,0.3-1.3,0.4-2,0.3
				c-0.1,0-0.3,0-0.4,0c-1,0.4-2.1,0.3-3.2,0.5c-0.2,0-0.3,0-0.5,0.1c-0.4,0.2-0.7,0.2-1.1,0c-0.1,0-0.3-0.1-0.4-0.1
				c-1.1,0.3-2.3,0.1-3.3,0.6c-0.6,0.2-1.1,0.2-1.7,0.2c-0.6,0-1.2,0-1.8,0c-1.2,0.1-2.3,0.2-3.5,0.3c-0.8,0.1-1.6,0.3-2.3,0.3
				c-1,0.1-2.1,0-3.1,0c-0.8,0-1.6,0-2.3,0c-0.7,0-1.4,0.1-2.1-0.1c-0.7-0.2-1.4-0.4-2.1-0.5c-0.2,0-0.5,0-0.7,0
				c-0.5,0-1,0.1-1.5,0.1c-1.4,0.1-2.7,0.1-4.1,0.1c-0.4,0-0.8-0.1-1.2-0.1c-0.7-0.1-1.4-0.1-2.1-0.2c-1.8-0.1-3.6-0.1-5.5-0.1
				c-0.2,0-0.4-0.1-0.7-0.1c-0.2,0-0.3-0.1-0.5-0.1c-1.4,0-2.7-0.4-4-0.7c-0.5-0.1-1-0.1-1.5-0.2c-0.3,0-0.5-0.1-0.8-0.1
				c-0.2,0-0.3-0.1-0.5-0.1c-1,0-2,0-3,0c-0.4,0-0.8,0-1.1-0.4c-0.1-0.1-0.3-0.1-0.5-0.2c-0.2-0.1-0.4-0.2-0.6-0.3
				c-0.2-0.3-0.5-0.3-0.8-0.3c-0.5,0.1-0.9,0-1.4-0.2c-0.2-0.1-0.5-0.2-0.7-0.2c-1.1,0-2.3-0.1-3.4-0.4c-0.3-0.1-0.6,0-0.8,0.3
				c-0.4,0.5-0.8,0.4-1.3,0.2c-0.6-0.3-1.3-0.4-2-0.6c-0.3-0.1-0.7-0.2-1-0.3c-0.1,0-0.3-0.1-0.4-0.1c-0.5,0-1-0.2-1.4-0.5
				c-0.3-0.1-0.6-0.2-0.9-0.2c-0.4,0-0.6-0.2-0.7-0.5c-0.3-0.9-0.4-1.8-0.4-2.8c0-1.4-0.1-2.8-0.2-4.2c0-0.3,0-0.5,0-0.8
				c0-2.1,0-4.3,0-6.4c0-1.5,0.2-3.1,0.2-4.6c0-0.7,0.1-1.4,0.2-2.1c0.1-1.3,0.6-2.3,1.7-3c0.1-0.1,0.2-0.1,0.3-0.2
				c0.2-0.2,0.3-0.3,0.1-0.6c-0.2-0.3-0.2-0.6-0.4-0.9c-0.1-0.2-0.2-0.5-0.4-0.6c-1.1-1.1-1.5-2.4-1.6-3.9c-0.1-1.1-0.1-2.3-0.2-3.4
				c-0.2-2.8-0.2-5.5-0.1-8.3c0.2-7,0.1-13.9,0.1-20.9c-0.1-4.7,0-9.4-0.1-14.2c-0.1-3.1,0-6.3-0.1-9.4c-0.2-2.8,0-5.6-0.1-8.4
				c-0.1-2.5,0-5-0.1-7.4c-0.2-2.5,0-5-0.1-7.5c-0.1-2.1-0.1-4.2-0.1-6.3c0-1.6-0.1-3.3-0.1-4.9c0-2-0.1-4-0.1-6.1
				c0-0.7-0.1-1.5-0.1-2.2c0.1-3.3,0.2-6.7,0.8-10c0.7-3.5,1.9-6.7,4-9.6c1.3-1.7,2.7-3.2,4.4-4.6c2.2-1.8,4.5-3.6,6.8-5.3
				c1.3-1,2.6-1.9,3.9-2.9c2.2-1.8,4.4-3.7,6-6.1c1.3-2,2.1-4.2,2.4-6.5c0.1-0.9,0.2-1.7,0.2-2.6c0-1,0-2-0.2-3
				c-0.2-2.1-0.5-4.2-0.8-6.4c-0.2-1.9-0.4-3.8-0.4-5.6c0.1-1.9,0.3-3.8,0.4-5.8c0-0.1,0.1-0.3,0-0.4c-0.3-0.7,0-1.4,0.2-2.1
				c0.6-3,1.3-6,1.8-9c0.3-1.9,0.5-3.9,0.8-5.8c0.2-1.9,0.5-3.8,0.7-5.7c0.3-2.1,0.5-4.1,0.8-6.2c0.2-1.4,0.3-2.8,0.3-4.2
				c0-0.9-0.2-1.8-0.9-2.5c-0.4-0.4-0.5-0.9-0.4-1.5c0.2-0.6,0.1-1.2,0-1.9c-0.1-0.7,0-1.5,0-2.3c0-0.2,0.1-0.4,0.1-0.5
				c0.1-1.5,0.1-3,0.1-4.4c0-0.6,0.2-1.2,0.5-1.7c0.2-0.4,0.3-0.8,0.4-1.3c0.1-0.4,0-0.9,0-1.3c0-2.5,0.1-4.9,0.2-7.4
				c0-0.5,0.2-1.1,0.3-1.6c0.1-0.4,0.5-0.6,0.8-0.7c0.8-0.2,1.6-0.4,2.4-0.6c1.8-0.3,3.6-0.4,5.4-0.4c1.4,0,2.8-0.1,4.2-0.1
				c1.9,0,3.9,0,5.8,0.1c1.7,0.1,3.4,0.3,5,0.5c0.5,0.1,1,0.3,1.4,0.5c0.7,0.4,1.1,1.1,1.1,2C163.8,27.6,163.8,28.3,163.8,29
				C163.8,29,163.8,29,163.8,29z"/>
		</g>
		<g>
			<path fill="#00B2B2" d="M195.2,243.3c-29.4,5.1-59.4,5.1-88.8,0c0-21.2,0-42.4,0-63.5c29.4,5.1,59.4,5.1,88.8,0
				C195.2,200.9,195.2,222.1,195.2,243.3z"/>
			<path fill="none" stroke="#272525" stroke-miterlimit="10" d="M195.2,243.3c-29.4,5.1-59.4,5.1-88.8,0c0-21.2,0-42.4,0-63.5
				c29.4,5.1,59.4,5.1,88.8,0C195.2,200.9,195.2,222.1,195.2,243.3z"/>
		</g>
		<g>
			<g>
				<path fill="#8B441A" d="M116.6,214.1c1,0.2,2,0.3,3,0.4c0,1.3,1.3,1.8,2,1.9c0.6,0.1,1.4,0,1.4-0.6c0-1.2-6.1-1.6-6.1-5.7
					c0-2.4,2.2-3.1,3.8-2.9c1.3,0.2,2.7,0.8,3.3,2.1c0.1-0.4,0.1-0.9,0.2-1.3c0.9,0.1,1.8,0.2,2.7,0.3c0,1.3,0,2.7,0,4
					c-1-0.1-1.9-0.2-2.9-0.3c0-1.2-0.9-2-2-2.1c-0.5-0.1-1.1,0.1-1.1,0.7c0,1.7,6.3,2.1,6.3,5.8c0,2.5-2.3,3.1-4.2,2.9
					c-1.6-0.2-2.7-1.1-3.3-1.9c-0.1,0.4-0.1,0.8-0.2,1.2c-0.9-0.1-1.9-0.3-2.8-0.4C116.6,216.8,116.6,215.5,116.6,214.1z"/>
				<path fill="#8B441A" d="M138.2,218.5c-1.1,1.1-2.8,2.1-4.9,1.9c-3.4-0.3-5.6-2.7-5.6-6.3c0-3.7,2.8-5.6,4.9-5.4
					c1.6,0.1,2.3,1.1,2.5,1.3c0.1-0.3,0.2-0.6,0.4-0.9c0.8,0.1,1.7,0.1,2.5,0.2c0,1.5,0,3,0,4.5c-1-0.1-1.9-0.1-2.9-0.2
					c0-1-0.6-2.1-1.7-2.1c-1.2-0.1-1.9,1.3-1.9,3c0,1.6,0.8,3.1,2.3,3.2c1.3,0.1,2.4-1.2,2.5-1.4C137,217,137.6,217.8,138.2,218.5z"
					/>
				<path fill="#8B441A" d="M138.7,214.9c0-3.5,2.3-5.7,5.6-5.6c3.9,0.1,5.8,2.4,5.8,6c0,3.6-2,5.8-5.7,5.7
					C141.1,220.9,138.7,218.9,138.7,214.9z M146.1,215.3c0-1.9-0.5-3.5-1.8-3.5c-1,0-1.7,1.3-1.7,3.3c0,2.1,0.8,3.5,1.8,3.5
					C145.5,218.6,146.1,217.2,146.1,215.3z"/>
				<path fill="#8B441A" d="M161.4,213.5c-0.8,0-1.6,0.1-2.4,0.1c0-0.7,0-1.4,0-2c-0.4,0-0.9,0-1.3,0c0,2.3,0,4.6,0,6.9
					c0.4,0,0.9,0,1.3,0c0,0.7,0,1.4,0,2.1c-2,0.1-4,0.1-6,0.2c0-0.7,0-1.4,0-2.1c0.4,0,0.9,0,1.3,0c0-2.3,0-4.6,0-6.9
					c-0.5,0-0.9,0-1.4,0c0,0.7,0,1.4,0,2c-0.8,0-1.6,0-2.4,0c0-1.4,0-2.8,0-4.2c3.6,0,7.2-0.1,10.8-0.3
					C161.4,210.8,161.4,212.2,161.4,213.5z"/>
				<path fill="#8B441A" d="M172.3,217.7c-1.1,1.3-2.8,2.5-4.8,2.7c-3.4,0.3-5.7-1.8-5.7-5.4c0-3.7,2.8-6,4.9-6.2
					c1.6-0.1,2.3,0.7,2.5,0.9c0.1-0.3,0.2-0.6,0.4-0.9c0.8-0.1,1.7-0.2,2.5-0.2c0,1.5,0,3,0,4.5c-1,0.1-1.9,0.2-2.9,0.3
					c0-1-0.6-2-1.7-1.9c-1.2,0.1-1.9,1.6-1.9,3.3c0,1.6,0.8,3,2.3,2.8c1.3-0.1,2.4-1.6,2.5-1.8C171.1,216.5,171.7,217.1,172.3,217.7
					z"/>
				<path fill="#8B441A" d="M178.1,207.9c0,0.7,0,1.4,0,2.1c-0.3,0-0.7,0.1-1,0.1c0,0.8,0,1.6,0,2.4c1-0.1,2-0.3,3-0.4
					c0-0.8,0-1.6,0-2.4c-0.3,0-0.6,0.1-0.9,0.1c0-0.7,0-1.4,0-2.1c1.7-0.2,3.5-0.5,5.2-0.8c0,0.7,0,1.4,0,2.1
					c-0.3,0-0.6,0.1-0.9,0.1c0,2.3,0,4.6,0,7c0.3,0,0.6-0.1,0.9-0.1c0,0.7,0,1.4,0,2.1c-1.7,0.3-3.4,0.5-5.2,0.8c0-0.7,0-1.4,0-2.1
					c0.3,0,0.6-0.1,0.9-0.1c0-0.8,0-1.6,0-2.4c-1,0.1-2,0.3-3,0.4c0,0.8,0,1.6,0,2.4c0.3,0,0.7-0.1,1-0.1c0,0.7,0,1.4,0,2.1
					c-1.7,0.2-3.4,0.4-5.2,0.6c0-0.7,0-1.4,0-2.1c0.3,0,0.6-0.1,0.9-0.1c0-2.3,0-4.6,0-7c-0.3,0-0.6,0.1-0.9,0.1c0-0.7,0-1.4,0-2.1
					C174.7,208.3,176.4,208.1,178.1,207.9z"/>
			</g>
		</g>
	</g>
</g>
</svg>
